<svg width="214" height="32" viewBox="0 0 214 32" fill="none" xmlns="http://www.w3.org/2000/svg">
<path d="M29.1417 11.1205C30.3282 9.92882 31.9801 9.33333 34.0988 9.33333C35.2126 9.33333 36.1941 9.48924 37.0429 9.80107C37.8916 10.1129 38.5171 10.4916 38.9194 10.9357C39.321 11.3799 39.6492 11.8293 39.9054 12.2833C40.1609 12.7372 40.307 13.1159 40.3437 13.4179L40.4259 13.9001H36.838C36.8196 13.8627 36.8013 13.8005 36.783 13.716C36.7646 13.6308 36.6875 13.4939 36.5502 13.3046C36.413 13.1159 36.258 12.9456 36.0847 12.7942C35.9108 12.6429 35.6464 12.506 35.2904 12.3828C34.9343 12.2603 34.5371 12.1988 34.0988 12.1988C33.0578 12.1988 32.2679 12.5204 31.7297 13.1631C31.1908 13.8064 30.922 14.7137 30.922 15.8863C30.922 17.059 31.1959 18.0279 31.7436 18.7373C32.2913 19.4462 33.0762 19.8012 34.0988 19.8012C34.7926 19.8012 35.3675 19.6172 35.8242 19.2483C36.2802 18.8795 36.5635 18.5061 36.6729 18.1274L36.8373 17.5883H40.398C40.3797 17.7206 40.3519 17.9001 40.3158 18.1274C40.2785 18.3541 40.128 18.7616 39.8636 19.3472C39.5986 19.9336 39.2653 20.4491 38.8637 20.8933C38.4615 21.3381 37.841 21.7443 37.0011 22.1131C36.1613 22.4819 35.1936 22.6667 34.0982 22.6667C31.9618 22.6667 30.3003 22.062 29.1138 20.8507C27.9267 19.6407 27.3335 17.9853 27.3335 15.8863C27.3335 13.9197 27.9356 12.3311 29.141 11.1205H29.1417Z" fill="#4B575C"/>
<path d="M43.0545 11.2338C44.296 9.96681 46.0029 9.33333 48.176 9.33333C50.3492 9.33333 52.0606 9.96681 53.3116 11.2338C54.5619 12.5008 55.1874 14.09 55.1874 15.9997C55.1874 17.9093 54.5663 19.5169 53.3248 20.7655C52.065 22.0325 50.3485 22.666 48.176 22.666C46.0036 22.666 44.2909 22.0279 43.0405 20.7511C41.7896 19.475 41.1641 17.891 41.1641 15.9997C41.1641 14.1084 41.7946 12.5008 43.0545 11.2338ZM44.7526 15.9997C44.7526 17.0963 45.0442 18.0043 45.6292 18.7229C46.2136 19.4416 47.0623 19.8006 48.1767 19.8006C49.2911 19.8006 50.1164 19.437 50.7103 18.7085C51.3029 17.9807 51.6001 17.0773 51.6001 15.999C51.6001 14.8644 51.308 13.9472 50.7236 13.2469C50.1392 12.5473 49.2898 12.1974 48.1767 12.1974C47.0636 12.1974 46.2136 12.5479 45.6292 13.2469C45.0448 13.9466 44.7526 14.8644 44.7526 15.9997Z" fill="#4B575C"/>
<path d="M59.9257 9.61699V11.4041C60.765 10.0422 62.0071 9.35233 63.6502 9.33333H63.8418C65.8505 9.33333 67.2653 9.88231 68.0869 10.9789C68.9084 12.0762 69.3189 13.6459 69.3189 15.6885V22.3837H65.786V15.6885C65.786 13.4002 64.9644 12.2466 63.3213 12.2276H63.2391C62.1437 12.2276 61.3399 12.601 60.8288 13.3485C60.3172 14.0959 60.0617 15.1598 60.0617 16.5401V22.3843H56.5288V9.61699H59.9251H59.9257Z" fill="#4B575C"/>
<path d="M72.3316 11.1205C73.5181 9.92882 75.1701 9.33333 77.2888 9.33333C78.4025 9.33333 79.3841 9.48924 80.2328 9.80107C81.0816 10.1129 81.7071 10.4916 82.1093 10.9357C82.5109 11.3799 82.8392 11.8293 83.0953 12.2833C83.3508 12.7372 83.4969 13.1159 83.5336 13.4179L83.6158 13.9001H80.0279C80.0096 13.8627 79.9912 13.8005 79.9729 13.716C79.9545 13.6308 79.8774 13.4939 79.7402 13.3046C79.6029 13.1159 79.448 12.9456 79.2747 12.7942C79.1007 12.6429 78.8364 12.506 78.4803 12.3828C78.1242 12.2603 77.7271 12.1988 77.2888 12.1988C76.2478 12.1988 75.4578 12.5204 74.9196 13.1631C74.3808 13.8064 74.112 14.7137 74.112 15.8863C74.112 17.059 74.3858 18.0279 74.9335 18.7373C75.4812 19.4462 76.2661 19.8012 77.2888 19.8012C77.9826 19.8012 78.5575 19.6172 79.0141 19.2483C79.4701 18.8795 79.7534 18.5061 79.8628 18.1274L80.0273 17.5883H83.588C83.5696 17.7206 83.5418 17.9001 83.5058 18.1274C83.4684 18.3541 83.3179 18.7616 83.0536 19.3472C82.7886 19.9336 82.4553 20.4491 82.0537 20.8933C81.6514 21.3381 81.031 21.7443 80.1911 22.1131C79.3512 22.4819 78.3835 22.6667 77.2881 22.6667C75.1517 22.6667 73.4903 22.062 72.3038 20.8507C71.1167 19.6407 70.5234 17.9853 70.5234 15.8863C70.5234 13.9197 71.1255 12.3311 72.331 11.1205H72.3316Z" fill="#4B575C"/>
<path d="M86.1078 11.1774C87.2759 9.94847 88.883 9.33333 90.9277 9.33333C92.9724 9.33333 94.5017 9.94323 95.6249 11.163C96.7481 12.3828 97.3091 14.0049 97.3091 16.0285C97.3091 16.3691 97.2908 16.719 97.2541 17.078H87.8053C87.878 17.9106 88.2113 18.5723 88.8052 19.0636C89.3984 19.5556 90.1239 19.8012 90.9827 19.8012C91.3843 19.8012 91.7448 19.7541 92.0649 19.6591C92.3836 19.5647 92.6303 19.456 92.8042 19.3328C92.9775 19.2103 93.1236 19.0826 93.2425 18.9503C93.3607 18.8179 93.4385 18.7046 93.4752 18.6096L93.5296 18.4674H97.0631C97.0448 18.5808 97.0037 18.7328 96.9398 18.9214C96.8753 19.1108 96.7026 19.4462 96.4193 19.9283C96.1359 20.4105 95.7938 20.8363 95.3922 21.2051C94.9899 21.5739 94.3967 21.91 93.6118 22.212C92.8263 22.514 91.9409 22.666 90.9549 22.666C88.9829 22.666 87.3898 22.0659 86.1755 20.8645C84.9612 19.6637 84.354 18.0515 84.354 16.0278C84.354 14.0042 84.9378 12.4248 86.1072 11.1768L86.1078 11.1774ZM93.8857 14.6384V14.5532C93.8857 13.8345 93.6118 13.2626 93.0641 12.8368C92.5164 12.411 91.8131 12.1988 90.9555 12.1988C90.0979 12.1988 89.3624 12.4254 88.8052 12.8794C88.248 13.3334 87.9153 13.9197 87.8053 14.6384H93.885H93.8857Z" fill="#4B575C"/>
<path d="M98.6514 9.61699H102.102V11.5181C102.832 10.2511 103.937 9.61699 105.416 9.61699H106.868V12.6809H105.498C104.056 12.6809 103.143 13.0451 102.76 13.773C102.376 14.5014 102.184 16.0757 102.184 18.4963V22.383H98.6514V9.61699Z" fill="#4B575C"/>
<path d="M108.866 11.2338C110.108 9.96681 111.815 9.33333 113.988 9.33333C116.161 9.33333 117.873 9.96681 119.124 11.2338C120.374 12.5008 121 14.09 121 15.9997C121 17.9093 120.379 19.5169 119.137 20.7655C117.878 22.0325 116.161 22.666 113.988 22.666C111.816 22.666 110.103 22.0279 108.853 20.7511C107.602 19.475 106.976 17.891 106.976 15.9997C106.976 14.1084 107.606 12.5008 108.866 11.2338H108.866ZM110.565 15.9997C110.565 17.0963 110.856 18.0043 111.441 18.7229C112.025 19.4416 112.874 19.8006 113.988 19.8006C115.102 19.8006 115.928 19.437 116.521 18.7085C117.114 17.9807 117.412 17.0773 117.412 15.999C117.412 14.8644 117.119 13.9472 116.535 13.2469C115.951 12.5473 115.101 12.1974 113.988 12.1974C112.875 12.1974 112.025 12.5479 111.441 13.2469C110.857 13.9466 110.565 14.8637 110.565 15.999V15.9997Z" fill="#4B575C"/>
<path d="M15.8639 8.75944H3.82257L5.25965 6.24384C5.345 6.09195 5.50757 6 5.67745 6H16.5686C16.732 6 16.8815 6.08867 16.9628 6.23071L18.6251 9.13465C18.6803 9.23317 18.6803 9.3555 18.6251 9.45402L16.6694 12.8719L18.456 16L16.8913 18.7397L13.6416 13.0567C13.57 12.9319 13.57 12.7767 13.6416 12.6519L15.8647 8.76026L15.8639 8.75944ZM3.70796 23.0427L5.26616 25.7693C5.34744 25.9105 5.50107 26 5.66363 26H16.5515C16.7246 26 16.884 25.908 16.9718 25.7562L18.4096 23.2406H6.56994L8.68899 19.5361C8.76052 19.4113 8.76052 19.2562 8.68899 19.1314L5.33443 13.2677L3.77298 16.0008L5.66363 19.3062L3.70796 22.7274C3.65269 22.8259 3.65269 22.9483 3.70796 23.0435V23.0427Z" fill="#7E54F1"/>
<path d="M8 22.3333H18.4474C18.679 22.3333 18.8904 22.2085 19.0082 22.0039L22.1962 16.4218C22.3791 16.1022 22.3791 15.707 22.1962 15.3874L19.1188 10L17.5411 12.7615L19.3342 15.905L18.2125 17.8719L17.2996 19.4667L17.2411 19.5686H9.57771L8 22.3333Z" fill="#7E54F1"/>
<path d="M0.135233 16.5303L3.25261 22L4.8081 19.2713L2.9537 16.0189L4.95555 12.5091L5.01966 12.3987H12.7778L14.3333 9.66667H3.83121C3.60282 9.66667 3.39125 9.79008 3.27826 9.99224L0.135233 15.5082C-0.0450778 15.824 -0.0450778 16.2145 0.135233 16.5303Z" fill="#7E54F1"/>
<path d="M209.125 12.12V18.6285C209.125 19.0819 209.231 19.4138 209.441 19.6243C209.668 19.8185 210.04 19.9157 210.558 19.9157H212.137V22.7814H210C207.134 22.7814 205.701 21.389 205.701 18.6043V12.12H204.098V9.32714H205.701V6H209.125V9.32714H212.137V12.12H209.125Z" fill="#84949B"/>
<path d="M202.685 15.7629C202.685 16.2486 202.653 16.6857 202.588 17.0743H192.752C192.833 18.0457 193.173 18.8067 193.772 19.3572C194.371 19.9076 195.108 20.1829 195.982 20.1829C197.245 20.1829 198.144 19.6405 198.678 18.5557H202.345C201.957 19.851 201.212 20.9195 200.111 21.7614C199.01 22.5872 197.658 23 196.055 23C194.76 23 193.594 22.7167 192.558 22.15C191.538 21.5672 190.737 20.7495 190.154 19.6972C189.587 18.6448 189.304 17.4305 189.304 16.0543C189.304 14.6619 189.587 13.4396 190.154 12.3872C190.72 11.3348 191.514 10.5253 192.534 9.95861C193.554 9.39194 194.728 9.10861 196.055 9.10861C197.334 9.10861 198.476 9.38385 199.479 9.93432C200.499 10.4848 201.285 11.27 201.835 12.29C202.402 13.2938 202.685 14.4515 202.685 15.7629ZM199.164 14.7915C199.147 13.9172 198.832 13.221 198.217 12.7029C197.601 12.1686 196.848 11.9015 195.958 11.9015C195.116 11.9015 194.404 12.1605 193.821 12.6786C193.254 13.1805 192.906 13.8848 192.777 14.7915H199.164Z" fill="#84949B"/>
<path d="M181.578 9.13286C183.181 9.13286 184.476 9.64286 185.463 10.6629C186.451 11.6667 186.945 13.0752 186.945 14.8886V22.7814H183.545V15.35C183.545 14.2814 183.278 13.4638 182.743 12.8971C182.209 12.3143 181.481 12.0229 180.558 12.0229C179.619 12.0229 178.874 12.3143 178.323 12.8971C177.789 13.4638 177.522 14.2814 177.522 15.35V22.7814H174.122V9.32714H177.522V11.0029C177.975 10.42 178.55 9.96667 179.246 9.64286C179.959 9.30286 180.736 9.13286 181.578 9.13286Z" fill="#84949B"/>
<path d="M168.665 12.12V18.6285C168.665 19.0819 168.771 19.4138 168.981 19.6243C169.208 19.8185 169.58 19.9157 170.098 19.9157H171.677V22.7814H169.54C166.674 22.7814 165.241 21.389 165.241 18.6043V12.12H163.638V9.32714H165.241V6H168.665V9.32714H171.677V12.12H168.665Z" fill="#84949B"/>
<path d="M156.621 23C155.52 23 154.533 22.8057 153.658 22.4172C152.784 22.0124 152.088 21.47 151.57 20.79C151.068 20.11 150.793 19.3572 150.744 18.5314H154.168C154.233 19.0495 154.484 19.4786 154.921 19.8186C155.375 20.1586 155.933 20.3286 156.597 20.3286C157.245 20.3286 157.747 20.1991 158.103 19.94C158.475 19.681 158.661 19.3491 158.661 18.9443C158.661 18.5072 158.435 18.1834 157.981 17.9729C157.544 17.7462 156.84 17.5034 155.868 17.2443C154.865 17.0014 154.039 16.7505 153.391 16.4915C152.76 16.2324 152.209 15.8357 151.74 15.3015C151.287 14.7672 151.06 14.0467 151.06 13.14C151.06 12.3953 151.27 11.7153 151.691 11.1C152.128 10.4848 152.744 9.99909 153.537 9.6429C154.347 9.28671 155.294 9.10861 156.378 9.10861C157.981 9.10861 159.26 9.51337 160.216 10.3229C161.171 11.1162 161.697 12.1929 161.794 13.5529H158.54C158.491 13.0186 158.265 12.5977 157.86 12.29C157.471 11.9662 156.945 11.8043 156.281 11.8043C155.666 11.8043 155.188 11.9177 154.848 12.1443C154.525 12.371 154.363 12.6867 154.363 13.0915C154.363 13.5448 154.589 13.8929 155.043 14.1357C155.496 14.3624 156.2 14.5972 157.156 14.84C158.127 15.0829 158.928 15.3338 159.56 15.5929C160.191 15.8519 160.734 16.2567 161.187 16.8072C161.656 17.3414 161.899 18.0538 161.916 18.9443C161.916 19.7214 161.697 20.4176 161.26 21.0329C160.839 21.6481 160.224 22.1338 159.414 22.49C158.621 22.83 157.69 23 156.621 23Z" fill="#84949B"/>
<path d="M148.991 15.7629C148.991 16.2486 148.959 16.6857 148.894 17.0743H139.058C139.139 18.0457 139.479 18.8067 140.078 19.3572C140.677 19.9076 141.414 20.1829 142.288 20.1829C143.551 20.1829 144.45 19.6405 144.984 18.5557H148.651C148.263 19.851 147.518 20.9195 146.417 21.7614C145.316 22.5872 143.964 23 142.361 23C141.066 23 139.9 22.7167 138.864 22.15C137.844 21.5672 137.043 20.7495 136.46 19.6972C135.893 18.6448 135.61 17.4305 135.61 16.0543C135.61 14.6619 135.893 13.4396 136.46 12.3872C137.027 11.3348 137.82 10.5253 138.84 9.95861C139.86 9.39194 141.034 9.10861 142.361 9.10861C143.64 9.10861 144.782 9.38385 145.786 9.93432C146.806 10.4848 147.591 11.27 148.141 12.29C148.708 13.2938 148.991 14.4515 148.991 15.7629ZM145.47 14.7915C145.454 13.9172 145.138 13.221 144.523 12.7029C143.907 12.1686 143.155 11.9015 142.264 11.9015C141.422 11.9015 140.71 12.1605 140.127 12.6786C139.56 13.1805 139.212 13.8848 139.083 14.7915H145.47Z" fill="#84949B"/>
<path d="M131.027 12.12V18.6285C131.027 19.0819 131.132 19.4138 131.343 19.6243C131.57 19.8185 131.942 19.9157 132.46 19.9157H134.039V22.7814H131.901C129.036 22.7814 127.603 21.389 127.603 18.6043V12.12H126V9.32714H127.603V6H131.027V9.32714H134.039V12.12H131.027Z" fill="#84949B"/>
</svg>
