<svg width="214" height="20" viewBox="0 0 214 20" fill="none" xmlns="http://www.w3.org/2000/svg">
<path d="M29.1414 5.12045C30.3279 3.92882 31.9799 3.33333 34.0986 3.33333C35.2123 3.33333 36.1939 3.48924 37.0426 3.80107C37.8914 4.1129 38.5169 4.49155 38.9191 4.93571C39.3207 5.37987 39.649 5.82927 39.9051 6.28326C40.1606 6.73725 40.3067 7.1159 40.3434 7.4179L40.4256 7.90006H36.8377C36.8194 7.86272 36.801 7.80048 36.7827 7.71598C36.7644 7.63081 36.6872 7.4939 36.55 7.30457C36.4127 7.1159 36.2578 6.94557 36.0845 6.79424C35.9106 6.64291 35.6462 6.506 35.2901 6.38284C34.9341 6.26033 34.5369 6.19875 34.0986 6.19875C33.0576 6.19875 32.2676 6.52041 31.7294 7.16307C31.1906 7.80638 30.9218 8.7137 30.9218 9.88633C30.9218 11.059 31.1956 12.0279 31.7433 12.7373C32.291 13.4462 33.0759 13.8012 34.0986 13.8012C34.7924 13.8012 35.3673 13.6172 35.8239 13.2483C36.2799 12.8795 36.5632 12.5061 36.6727 12.1274L36.8371 11.5883H40.3978C40.3795 11.7206 40.3516 11.9001 40.3156 12.1274C40.2783 12.3541 40.1277 12.7616 39.8634 13.3472C39.5984 13.9336 39.2651 14.4491 38.8635 14.8933C38.4612 15.3381 37.8408 15.7443 37.0009 16.1131C36.161 16.4819 35.1934 16.6667 34.098 16.6667C31.9615 16.6667 30.3001 16.062 29.1136 14.8507C27.9265 13.6407 27.3333 11.9853 27.3333 9.88633C27.3333 7.91971 27.9353 6.33108 29.1408 5.12045H29.1414Z" fill="#4B575C"/>
<path d="M43.0542 5.23379C44.2957 3.96681 46.0027 3.33333 48.1758 3.33333C50.3489 3.33333 52.0603 3.96681 53.3113 5.23379C54.5617 6.50076 55.1872 8.09004 55.1872 9.99967C55.1872 11.9093 54.5661 13.5169 53.3246 14.7655C52.0647 16.0325 50.3483 16.666 48.1758 16.666C46.0033 16.666 44.2907 16.0279 43.0403 14.7511C41.7893 13.475 41.1638 11.891 41.1638 9.99967C41.1638 8.10838 41.7944 6.50076 43.0542 5.23379ZM44.7523 9.99967C44.7523 11.0963 45.0439 12.0043 45.6289 12.7229C46.2133 13.4416 47.0621 13.8006 48.1764 13.8006C49.2908 13.8006 50.1162 13.437 50.71 12.7085C51.3026 11.9807 51.5999 11.0773 51.5999 9.99901C51.5999 8.86437 51.3077 7.94723 50.7233 7.24692C50.1389 6.54727 49.2896 6.19744 48.1764 6.19744C47.0633 6.19744 46.2133 6.54792 45.6289 7.24692C45.0445 7.94657 44.7523 8.86437 44.7523 9.99967Z" fill="#4B575C"/>
<path d="M59.9255 3.61699V5.40411C60.7647 4.04215 62.0069 3.35233 63.65 3.33333H63.8416C65.8503 3.33333 67.2651 3.88231 68.0866 4.97895C68.9082 6.07625 69.3186 7.64588 69.3186 9.68849V16.3837H65.7858V9.68849C65.7858 7.40021 64.9642 6.24658 63.3211 6.22758H63.2389C62.1435 6.22758 61.3396 6.60099 60.8286 7.34846C60.3169 8.09593 60.0614 9.15982 60.0614 10.5401V16.3843H56.5286V3.61699H59.9248H59.9255Z" fill="#4B575C"/>
<path d="M72.3316 5.12045C73.5181 3.92882 75.1701 3.33333 77.2888 3.33333C78.4025 3.33333 79.3841 3.48924 80.2328 3.80107C81.0816 4.1129 81.7071 4.49155 82.1093 4.93571C82.5109 5.37987 82.8392 5.82927 83.0953 6.28326C83.3508 6.73725 83.4969 7.1159 83.5336 7.4179L83.6158 7.90006H80.0279C80.0096 7.86272 79.9912 7.80048 79.9729 7.71598C79.9545 7.63081 79.8774 7.4939 79.7402 7.30457C79.6029 7.1159 79.448 6.94557 79.2747 6.79424C79.1007 6.64291 78.8364 6.506 78.4803 6.38284C78.1242 6.26033 77.7271 6.19875 77.2888 6.19875C76.2478 6.19875 75.4578 6.52041 74.9196 7.16307C74.3808 7.80638 74.112 8.7137 74.112 9.88633C74.112 11.059 74.3858 12.0279 74.9335 12.7373C75.4812 13.4462 76.2661 13.8012 77.2888 13.8012C77.9826 13.8012 78.5575 13.6172 79.0141 13.2483C79.4701 12.8795 79.7534 12.5061 79.8628 12.1274L80.0273 11.5883H83.588C83.5696 11.7206 83.5418 11.9001 83.5058 12.1274C83.4684 12.3541 83.3179 12.7616 83.0536 13.3472C82.7886 13.9336 82.4553 14.4491 82.0537 14.8933C81.6514 15.3381 81.031 15.7443 80.1911 16.1131C79.3512 16.4819 78.3835 16.6667 77.2881 16.6667C75.1517 16.6667 73.4903 16.062 72.3038 14.8507C71.1167 13.6407 70.5234 11.9853 70.5234 9.88633C70.5234 7.91971 71.1255 6.33108 72.331 5.12045H72.3316Z" fill="#4B575C"/>
<path d="M86.1075 5.17745C87.2757 3.94847 88.8827 3.33333 90.9275 3.33333C92.9722 3.33333 94.5014 3.94323 95.6247 5.16303C96.7479 6.38284 97.3089 8.00488 97.3089 10.0285C97.3089 10.3691 97.2905 10.719 97.2539 11.078H87.805C87.8778 11.9106 88.2111 12.5723 88.805 13.0636C89.3982 13.5556 90.1236 13.8012 90.9825 13.8012C91.3841 13.8012 91.7446 13.7541 92.0646 13.6591C92.3834 13.5647 92.63 13.456 92.8039 13.3328C92.9772 13.2103 93.1233 13.0826 93.2422 12.9503C93.3605 12.8179 93.4383 12.7046 93.475 12.6096L93.5294 12.4674H97.0629C97.0445 12.5808 97.0034 12.7328 96.9395 12.9214C96.875 13.1108 96.7024 13.4462 96.419 13.9283C96.1357 14.4105 95.7935 14.8363 95.3919 15.2051C94.9897 15.5739 94.3965 15.91 93.6116 16.212C92.8261 16.514 91.9406 16.666 90.9547 16.666C88.9827 16.666 87.3895 16.0659 86.1752 14.8645C84.9609 13.6637 84.3538 12.0515 84.3538 10.0278C84.3538 8.00422 84.9375 6.42476 86.1069 5.17679L86.1075 5.17745ZM93.8854 8.63836V8.5532C93.8854 7.83455 93.6116 7.26264 93.0639 6.83683C92.5162 6.41101 91.8129 6.19875 90.9553 6.19875C90.0977 6.19875 89.3621 6.42542 88.805 6.87941C88.2478 7.33339 87.9151 7.91971 87.805 8.63836H93.8848H93.8854Z" fill="#4B575C"/>
<path d="M98.6509 3.61699H102.102V5.5181C102.831 4.25113 103.936 3.61699 105.416 3.61699H106.867V6.68091H105.498C104.055 6.68091 103.143 7.04515 102.759 7.77297C102.375 8.50145 102.184 10.0757 102.184 12.4963V16.383H98.6509V3.61699Z" fill="#4B575C"/>
<path d="M108.866 5.23379C110.108 3.96681 111.815 3.33333 113.988 3.33333C116.161 3.33333 117.873 3.96681 119.124 5.23379C120.374 6.50076 121 8.09004 121 9.99967C121 11.9093 120.379 13.5169 119.137 14.7655C117.878 16.0325 116.161 16.666 113.988 16.666C111.816 16.666 110.103 16.0279 108.853 14.7511C107.602 13.475 106.976 11.891 106.976 9.99967C106.976 8.10838 107.606 6.50076 108.866 5.23379H108.866ZM110.565 9.99967C110.565 11.0963 110.856 12.0043 111.441 12.7229C112.025 13.4416 112.874 13.8006 113.988 13.8006C115.102 13.8006 115.928 13.437 116.521 12.7085C117.114 11.9807 117.412 11.0773 117.412 9.99901C117.412 8.86437 117.119 7.94723 116.535 7.24692C115.951 6.54727 115.101 6.19744 113.988 6.19744C112.875 6.19744 112.025 6.54792 111.441 7.24692C110.857 7.94657 110.565 8.86372 110.565 9.99901V9.99967Z" fill="#4B575C"/>
<path d="M15.8641 2.75944H3.82281L5.2599 0.243842C5.34525 0.091954 5.50781 0 5.67769 0H16.5688C16.7322 0 16.8818 0.0886699 16.9631 0.230706L18.6253 3.13465C18.6806 3.23317 18.6806 3.3555 18.6253 3.45402L16.6696 6.87192L18.4562 10L16.8915 12.7397L13.6418 7.05665C13.5703 6.93186 13.5703 6.77668 13.6418 6.65189L15.8649 2.76026L15.8641 2.75944ZM3.7082 17.0427L5.2664 19.7693C5.34768 19.9105 5.50131 20 5.66388 20H16.5518C16.7249 20 16.8842 19.908 16.972 19.7562L18.4099 17.2406H6.57018L8.68924 13.5361C8.76077 13.4113 8.76077 13.2562 8.68924 13.1314L5.33468 7.26765L3.77323 10.0008L5.66388 13.3062L3.7082 16.7274C3.65293 16.8259 3.65293 16.9483 3.7082 17.0435V17.0427Z" fill="#7E54F1"/>
<path d="M8 16.3333H18.4474C18.679 16.3333 18.8904 16.2085 19.0082 16.0039L22.1962 10.4218C22.3791 10.1022 22.3791 9.70697 22.1962 9.38736L19.1188 4L17.5411 6.76146L19.3342 9.90498L18.2125 11.8719L17.2996 13.4667L17.2411 13.5686H9.57771L8 16.3333Z" fill="#7E54F1"/>
<path d="M0.135233 10.5303L3.25261 16L4.8081 13.2713L2.9537 10.0189L4.95555 6.50908L5.01966 6.39866H12.7778L14.3333 3.66667H3.83121C3.60282 3.66667 3.39125 3.79008 3.27826 3.99224L0.135233 9.50818C-0.0450778 9.824 -0.0450778 10.2145 0.135233 10.5303Z" fill="#7E54F1"/>
<path d="M131.027 6.11999V12.6285C131.027 13.0819 131.132 13.4138 131.343 13.6243C131.57 13.8185 131.942 13.9157 132.46 13.9157H134.039V16.7814H131.901C129.036 16.7814 127.603 15.389 127.603 12.6043V6.11999H126V3.32714H127.603V0H131.027V3.32714H134.039V6.11999H131.027Z" fill="#84949B"/>
</svg>
