<svg width="135" height="32" viewBox="0 0 135 32" fill="none" xmlns="http://www.w3.org/2000/svg">
<path d="M29.1414 11.1205C30.3279 9.92882 31.9799 9.33333 34.0986 9.33333C35.2123 9.33333 36.1939 9.48924 37.0426 9.80107C37.8914 10.1129 38.5169 10.4916 38.9191 10.9357C39.3207 11.3799 39.649 11.8293 39.9051 12.2833C40.1606 12.7372 40.3067 13.1159 40.3434 13.4179L40.4256 13.9001H36.8377C36.8194 13.8627 36.801 13.8005 36.7827 13.716C36.7644 13.6308 36.6872 13.4939 36.55 13.3046C36.4127 13.1159 36.2578 12.9456 36.0845 12.7942C35.9106 12.6429 35.6462 12.506 35.2901 12.3828C34.9341 12.2603 34.5369 12.1988 34.0986 12.1988C33.0576 12.1988 32.2676 12.5204 31.7294 13.1631C31.1906 13.8064 30.9218 14.7137 30.9218 15.8863C30.9218 17.059 31.1956 18.0279 31.7433 18.7373C32.291 19.4462 33.0759 19.8012 34.0986 19.8012C34.7924 19.8012 35.3673 19.6172 35.8239 19.2483C36.2799 18.8795 36.5632 18.5061 36.6727 18.1274L36.8371 17.5883H40.3978C40.3795 17.7206 40.3516 17.9001 40.3156 18.1274C40.2783 18.3541 40.1277 18.7616 39.8634 19.3472C39.5984 19.9336 39.2651 20.4491 38.8635 20.8933C38.4612 21.3381 37.8408 21.7443 37.0009 22.1131C36.161 22.4819 35.1934 22.6667 34.098 22.6667C31.9615 22.6667 30.3001 22.062 29.1136 20.8507C27.9265 19.6407 27.3333 17.9853 27.3333 15.8863C27.3333 13.9197 27.9353 12.3311 29.1408 11.1205H29.1414Z" fill="#4B575C"/>
<path d="M43.0542 11.2338C44.2957 9.96681 46.0027 9.33333 48.1758 9.33333C50.3489 9.33333 52.0603 9.96681 53.3113 11.2338C54.5617 12.5008 55.1872 14.09 55.1872 15.9997C55.1872 17.9093 54.5661 19.5169 53.3246 20.7655C52.0647 22.0325 50.3483 22.666 48.1758 22.666C46.0033 22.666 44.2907 22.0279 43.0403 20.7511C41.7893 19.475 41.1638 17.891 41.1638 15.9997C41.1638 14.1084 41.7944 12.5008 43.0542 11.2338ZM44.7523 15.9997C44.7523 17.0963 45.0439 18.0043 45.6289 18.7229C46.2133 19.4416 47.0621 19.8006 48.1764 19.8006C49.2908 19.8006 50.1162 19.437 50.71 18.7085C51.3026 17.9807 51.5999 17.0773 51.5999 15.999C51.5999 14.8644 51.3077 13.9472 50.7233 13.2469C50.1389 12.5473 49.2896 12.1974 48.1764 12.1974C47.0633 12.1974 46.2133 12.5479 45.6289 13.2469C45.0445 13.9466 44.7523 14.8644 44.7523 15.9997Z" fill="#4B575C"/>
<path d="M59.9255 9.61699V11.4041C60.7647 10.0422 62.0069 9.35233 63.65 9.33333H63.8416C65.8503 9.33333 67.2651 9.88231 68.0866 10.9789C68.9082 12.0762 69.3186 13.6459 69.3186 15.6885V22.3837H65.7858V15.6885C65.7858 13.4002 64.9642 12.2466 63.3211 12.2276H63.2389C62.1435 12.2276 61.3396 12.601 60.8286 13.3485C60.3169 14.0959 60.0614 15.1598 60.0614 16.5401V22.3843H56.5286V9.61699H59.9248H59.9255Z" fill="#4B575C"/>
<path d="M72.3316 11.1205C73.5181 9.92882 75.1701 9.33333 77.2888 9.33333C78.4025 9.33333 79.3841 9.48924 80.2328 9.80107C81.0816 10.1129 81.7071 10.4916 82.1093 10.9357C82.5109 11.3799 82.8392 11.8293 83.0953 12.2833C83.3508 12.7372 83.4969 13.1159 83.5336 13.4179L83.6158 13.9001H80.0279C80.0096 13.8627 79.9912 13.8005 79.9729 13.716C79.9545 13.6308 79.8774 13.4939 79.7402 13.3046C79.6029 13.1159 79.448 12.9456 79.2747 12.7942C79.1007 12.6429 78.8364 12.506 78.4803 12.3828C78.1242 12.2603 77.7271 12.1988 77.2888 12.1988C76.2478 12.1988 75.4578 12.5204 74.9196 13.1631C74.3808 13.8064 74.112 14.7137 74.112 15.8863C74.112 17.059 74.3858 18.0279 74.9335 18.7373C75.4812 19.4462 76.2661 19.8012 77.2888 19.8012C77.9826 19.8012 78.5575 19.6172 79.0141 19.2483C79.4701 18.8795 79.7534 18.5061 79.8628 18.1274L80.0273 17.5883H83.588C83.5696 17.7206 83.5418 17.9001 83.5058 18.1274C83.4684 18.3541 83.3179 18.7616 83.0536 19.3472C82.7886 19.9336 82.4553 20.4491 82.0537 20.8933C81.6514 21.3381 81.031 21.7443 80.1911 22.1131C79.3512 22.4819 78.3835 22.6667 77.2881 22.6667C75.1517 22.6667 73.4903 22.062 72.3038 20.8507C71.1167 19.6407 70.5234 17.9853 70.5234 15.8863C70.5234 13.9197 71.1255 12.3311 72.331 11.1205H72.3316Z" fill="#4B575C"/>
<path d="M86.1075 11.1774C87.2757 9.94847 88.8827 9.33333 90.9275 9.33333C92.9722 9.33333 94.5014 9.94323 95.6247 11.163C96.7479 12.3828 97.3089 14.0049 97.3089 16.0285C97.3089 16.3691 97.2905 16.719 97.2539 17.078H87.805C87.8778 17.9106 88.2111 18.5723 88.805 19.0636C89.3982 19.5556 90.1236 19.8012 90.9825 19.8012C91.3841 19.8012 91.7446 19.7541 92.0646 19.6591C92.3834 19.5647 92.63 19.456 92.8039 19.3328C92.9772 19.2103 93.1233 19.0826 93.2422 18.9503C93.3605 18.8179 93.4383 18.7046 93.475 18.6096L93.5294 18.4674H97.0629C97.0445 18.5808 97.0034 18.7328 96.9395 18.9214C96.875 19.1108 96.7024 19.4462 96.419 19.9283C96.1357 20.4105 95.7935 20.8363 95.3919 21.2051C94.9897 21.5739 94.3965 21.91 93.6116 22.212C92.8261 22.514 91.9406 22.666 90.9547 22.666C88.9827 22.666 87.3895 22.0659 86.1752 20.8645C84.9609 19.6637 84.3538 18.0515 84.3538 16.0278C84.3538 14.0042 84.9375 12.4248 86.1069 11.1768L86.1075 11.1774ZM93.8854 14.6384V14.5532C93.8854 13.8345 93.6116 13.2626 93.0639 12.8368C92.5162 12.411 91.8129 12.1988 90.9553 12.1988C90.0977 12.1988 89.3621 12.4254 88.805 12.8794C88.2478 13.3334 87.9151 13.9197 87.805 14.6384H93.8848H93.8854Z" fill="#4B575C"/>
<path d="M98.6509 9.61699H102.102V11.5181C102.831 10.2511 103.936 9.61699 105.416 9.61699H106.867V12.6809H105.498C104.055 12.6809 103.143 13.0451 102.759 13.773C102.375 14.5014 102.184 16.0757 102.184 18.4963V22.383H98.6509V9.61699Z" fill="#4B575C"/>
<path d="M108.866 11.2338C110.108 9.96681 111.815 9.33333 113.988 9.33333C116.161 9.33333 117.873 9.96681 119.124 11.2338C120.374 12.5008 121 14.09 121 15.9997C121 17.9093 120.379 19.5169 119.137 20.7655C117.878 22.0325 116.161 22.666 113.988 22.666C111.816 22.666 110.103 22.0279 108.853 20.7511C107.602 19.475 106.976 17.891 106.976 15.9997C106.976 14.1084 107.606 12.5008 108.866 11.2338H108.866ZM110.565 15.9997C110.565 17.0963 110.856 18.0043 111.441 18.7229C112.025 19.4416 112.874 19.8006 113.988 19.8006C115.102 19.8006 115.928 19.437 116.521 18.7085C117.114 17.9807 117.412 17.0773 117.412 15.999C117.412 14.8644 117.119 13.9472 116.535 13.2469C115.951 12.5473 115.101 12.1974 113.988 12.1974C112.875 12.1974 112.025 12.5479 111.441 13.2469C110.857 13.9466 110.565 14.8637 110.565 15.999V15.9997Z" fill="#4B575C"/>
<path d="M15.8641 8.75944H3.82281L5.2599 6.24384C5.34525 6.09195 5.50781 6 5.67769 6H16.5688C16.7322 6 16.8818 6.08867 16.9631 6.23071L18.6253 9.13465C18.6806 9.23317 18.6806 9.3555 18.6253 9.45402L16.6696 12.8719L18.4562 16L16.8915 18.7397L13.6418 13.0567C13.5703 12.9319 13.5703 12.7767 13.6418 12.6519L15.8649 8.76026L15.8641 8.75944ZM3.7082 23.0427L5.2664 25.7693C5.34768 25.9105 5.50131 26 5.66388 26H16.5518C16.7249 26 16.8842 25.908 16.972 25.7562L18.4099 23.2406H6.57018L8.68924 19.5361C8.76077 19.4113 8.76077 19.2562 8.68924 19.1314L5.33468 13.2677L3.77323 16.0008L5.66388 19.3062L3.7082 22.7274C3.65293 22.8259 3.65293 22.9483 3.7082 23.0435V23.0427Z" fill="#7E54F1"/>
<path d="M8 22.3333H18.4474C18.679 22.3333 18.8904 22.2085 19.0082 22.0039L22.1962 16.4218C22.3791 16.1022 22.3791 15.707 22.1962 15.3874L19.1188 10L17.5411 12.7615L19.3342 15.905L18.2125 17.8719L17.2996 19.4667L17.2411 19.5686H9.57771L8 22.3333Z" fill="#7E54F1"/>
<path d="M0.135233 16.5303L3.25261 22L4.8081 19.2713L2.9537 16.0189L4.95555 12.5091L5.01966 12.3987H12.7778L14.3333 9.66667H3.83121C3.60282 9.66667 3.39125 9.79008 3.27826 9.99224L0.135233 15.5082C-0.0450778 15.824 -0.0450778 16.2145 0.135233 16.5303Z" fill="#7E54F1"/>
<path d="M131.027 12.12V18.6285C131.027 19.0819 131.132 19.4138 131.343 19.6243C131.57 19.8185 131.942 19.9157 132.46 19.9157H134.039V22.7814H131.901C129.036 22.7814 127.603 21.389 127.603 18.6043V12.12H126V9.32714H127.603V6H131.027V9.32714H134.039V12.12H131.027Z" fill="#84949B"/>
</svg>
