<?xml version="1.0" encoding="UTF-8"?>
<svg xmlns="http://www.w3.org/2000/svg" xmlns:xlink="http://www.w3.org/1999/xlink" width="32px" height="32px" viewBox="0 0 32 32" version="1.1">
<g id="surface1">
<path style=" stroke:none;fill-rule:nonzero;fill:rgb(87.058824%,84.705883%,84.705883%);fill-opacity:1;" d="M 0.160156 12.800781 C 0.160156 8.535156 0.160156 4.347656 0.160156 0.160156 C 10.828125 0.160156 21.492188 0.160156 32.160156 0.160156 C 32.160156 10.828125 32.160156 21.492188 32.160156 32.160156 C 21.492188 32.160156 10.828125 32.160156 0.160156 32.160156 C 0.160156 25.734375 0.160156 19.308594 0.160156 12.800781 M 3.242188 23.878906 C 4.25 25.074219 5.132812 26.414062 6.289062 27.441406 C 13.148438 33.519531 24.003906 31.914062 28.898438 24.160156 C 32.863281 17.882812 31.644531 9.59375 26.039062 4.714844 C 20.035156 -0.511719 10.863281 -0.167969 5.394531 5.492188 C 0.589844 10.460938 -0.289062 17.75 3.242188 23.878906 Z M 3.242188 23.878906 "/>
<path style=" stroke:none;fill-rule:nonzero;fill:rgb(20%,18.431373%,18.82353%);fill-opacity:1;" d="M 3.214844 23.828125 C -0.289062 17.75 0.589844 10.460938 5.394531 5.492188 C 10.863281 -0.167969 20.035156 -0.511719 26.039062 4.714844 C 31.644531 9.59375 32.863281 17.882812 28.898438 24.160156 C 24.003906 31.914062 13.148438 33.519531 6.289062 27.441406 C 5.132812 26.414062 4.25 25.074219 3.214844 23.828125 M 11.40625 27.882812 C 13.585938 28.714844 15.8125 29.039062 18.136719 28.644531 C 27.09375 27.132812 31.691406 17.253906 27.039062 9.496094 C 24.199219 4.757812 18.472656 2.386719 13.117188 3.734375 C 7.945312 5.035156 4.03125 9.441406 3.507812 14.566406 C 2.90625 20.386719 5.894531 25.480469 11.40625 27.882812 Z M 11.40625 27.882812 "/>
<path style=" stroke:none;fill-rule:nonzero;fill:rgb(86.274511%,84.313726%,84.313726%);fill-opacity:1;" d="M 11.347656 27.863281 C 5.894531 25.480469 2.90625 20.386719 3.507812 14.566406 C 4.03125 9.441406 7.945312 5.035156 13.117188 3.734375 C 18.472656 2.386719 24.199219 4.757812 27.039062 9.496094 C 31.691406 17.253906 27.09375 27.132812 18.136719 28.644531 C 15.8125 29.039062 13.585938 28.714844 11.347656 27.863281 M 14.789062 11.359375 C 14.367188 10.128906 13.960938 8.890625 13.511719 7.667969 C 13.4375 7.464844 13.195312 7.1875 13.023438 7.179688 C 11.886719 7.136719 10.75 7.15625 9.570312 7.15625 C 9.570312 11.707031 9.570312 16.164062 9.570312 20.707031 C 9.804688 20.59375 9.953125 20.492188 10.121094 20.445312 C 11.875 19.953125 12.207031 18.75 12.074219 17.074219 C 11.917969 15.085938 12.039062 13.074219 12.039062 11.074219 C 12.238281 11.21875 12.324219 11.378906 12.386719 11.546875 C 13.050781 13.367188 13.722656 15.1875 14.378906 17.011719 C 14.976562 18.691406 14.96875 18.664062 16.746094 18.722656 C 17.265625 18.738281 17.441406 18.53125 17.582031 18.109375 C 17.945312 17 18.328125 15.894531 18.71875 14.792969 C 19.175781 13.507812 19.652344 12.226562 20.121094 10.945312 C 20.265625 13.5625 20.257812 16.136719 20.28125 18.710938 C 20.28125 18.980469 20.394531 19.378906 20.589844 19.5 C 21.253906 19.917969 21.980469 20.242188 22.714844 20.613281 C 22.714844 16.105469 22.714844 11.652344 22.714844 7.15625 C 21.792969 7.15625 20.933594 7.238281 20.097656 7.132812 C 19.152344 7.015625 18.824219 7.425781 18.570312 8.257812 C 17.855469 10.597656 17.050781 12.910156 16.238281 15.371094 C 15.738281 13.96875 15.289062 12.722656 14.789062 11.359375 M 18.484375 24.160156 C 19.535156 24.292969 20.195312 23.910156 20.375 23.058594 C 20.539062 22.296875 20.074219 21.546875 19.3125 21.339844 C 18.636719 21.152344 17.960938 21.464844 17.652344 22.109375 C 17.277344 22.882812 17.503906 23.511719 18.484375 24.160156 M 12.980469 21.316406 C 11.820312 21.820312 11.492188 23.007812 12.3125 23.777344 C 12.832031 24.265625 13.449219 24.351562 14.070312 24.003906 C 14.703125 23.648438 14.890625 23.054688 14.730469 22.363281 C 14.5625 21.632812 14.039062 21.296875 12.980469 21.316406 Z M 12.980469 21.316406 "/>
<path style=" stroke:none;fill-rule:nonzero;fill:rgb(19.215687%,17.647059%,18.039216%);fill-opacity:1;" d="M 14.816406 11.417969 C 15.289062 12.722656 15.738281 13.96875 16.238281 15.371094 C 17.050781 12.910156 17.855469 10.597656 18.570312 8.257812 C 18.824219 7.425781 19.152344 7.015625 20.097656 7.132812 C 20.933594 7.238281 21.792969 7.15625 22.714844 7.15625 C 22.714844 11.652344 22.714844 16.105469 22.714844 20.613281 C 21.980469 20.242188 21.253906 19.917969 20.589844 19.5 C 20.394531 19.378906 20.28125 18.980469 20.28125 18.710938 C 20.257812 16.136719 20.265625 13.5625 20.121094 10.945312 C 19.652344 12.226562 19.175781 13.507812 18.71875 14.792969 C 18.328125 15.894531 17.945312 17 17.582031 18.109375 C 17.441406 18.53125 17.265625 18.738281 16.746094 18.722656 C 14.96875 18.664062 14.976562 18.691406 14.378906 17.011719 C 13.722656 15.1875 13.050781 13.367188 12.386719 11.546875 C 12.324219 11.378906 12.238281 11.21875 12.039062 11.074219 C 12.039062 13.074219 11.917969 15.085938 12.074219 17.074219 C 12.207031 18.75 11.875 19.953125 10.121094 20.445312 C 9.953125 20.492188 9.804688 20.59375 9.570312 20.707031 C 9.570312 16.164062 9.570312 11.707031 9.570312 7.15625 C 10.75 7.15625 11.886719 7.136719 13.023438 7.179688 C 13.195312 7.1875 13.4375 7.464844 13.511719 7.667969 C 13.960938 8.890625 14.367188 10.128906 14.816406 11.417969 Z M 14.816406 11.417969 "/>
<path style=" stroke:none;fill-rule:nonzero;fill:rgb(21.176471%,19.607843%,19.607843%);fill-opacity:1;" d="M 18.429688 24.144531 C 17.503906 23.511719 17.277344 22.882812 17.652344 22.109375 C 17.960938 21.464844 18.636719 21.152344 19.3125 21.339844 C 20.074219 21.546875 20.539062 22.296875 20.375 23.058594 C 20.195312 23.910156 19.535156 24.292969 18.429688 24.144531 Z M 18.429688 24.144531 "/>
<path style=" stroke:none;fill-rule:nonzero;fill:rgb(20.784314%,18.82353%,19.215687%);fill-opacity:1;" d="M 13.042969 21.304688 C 14.039062 21.296875 14.5625 21.632812 14.730469 22.363281 C 14.890625 23.054688 14.703125 23.648438 14.070312 24.003906 C 13.449219 24.351562 12.832031 24.265625 12.3125 23.777344 C 11.492188 23.007812 11.820312 21.820312 13.042969 21.304688 Z M 13.042969 21.304688 "/>
</g>
</svg>
